<?xml version="1.0" standalone="no"?>
<!DOCTYPE svg PUBLIC "-//W3C//DTD SVG 20010904//EN"
 "http://www.w3.org/TR/2001/REC-SVG-20010904/DTD/svg10.dtd">
<svg version="1.0" xmlns="http://www.w3.org/2000/svg"
 width="5000.000000pt" height="5000.000000pt" viewBox="0 0 5000.000000 5000.000000"
 preserveAspectRatio="xMidYMid meet">
<metadata>
Created by potrace 1.11, written by Peter Selinger 2001-2013
</metadata>
<g transform="translate(0.000000,5000.000000) scale(0.100000,-0.100000)"
fill="#000000" stroke="none">
<path d="M24170 49989 c-5063 -171 -9871 -1833 -13950 -4823 -791 -580 -1578
-1233 -2323 -1928 -221 -208 -927 -913 -1133 -1133 -1223 -1310 -2269 -2690
-3176 -4190 -2088 -3456 -3299 -7344 -3543 -11380 -30 -497 -36 -690 -42
-1300 -7 -773 11 -1388 62 -2085 383 -5216 2381 -10148 5744 -14175 506 -605
1019 -1163 1607 -1745 817 -809 1571 -1463 2516 -2183 l168 -128 3 17748 3
17748 22 115 c59 304 157 549 313 782 340 505 873 820 1484 878 75 7 4238 10
13115 10 8877 0 13040 -3 13115 -10 850 -80 1553 -679 1760 -1500 63 -247 59
-101 62 -2302 l4 -2008 -31 0 c-17 0 -4885 417 -10818 926 -8815 757 -10816
927 -10947 926 -332 -1 -600 -67 -905 -223 -563 -289 -959 -838 -1055 -1463
-8 -56 -661 -7632 -1450 -16836 -789 -9204 -1437 -16756 -1440 -16781 l-5 -46
417 -211 c1166 -587 2227 -1027 3453 -1430 3019 -993 6246 -1398 9465 -1187
3835 252 7536 1378 10865 3308 1494 866 2925 1909 4200 3061 638 577 1312
1251 1845 1846 81 91 169 188 195 215 26 28 130 147 231 265 3417 3992 5477
8921 5914 14145 107 1283 114 2672 20 3955 -384 5228 -2392 10174 -5766 14200
-904 1079 -1925 2108 -2989 3011 -3726 3162 -8247 5151 -13070 5748 -791 98
-1507 154 -2335 181 -344 11 -1258 11 -1605 -1z"/>
</g>
</svg>
